{
  "title": "The Kettering Incident - S01E07 - Madness",
  "uid": 15533890,
  "size": 439014352,
  "categoryP": "video",
  "categoryS": "tv_shows",
  "magnet": "?xt=urn:btih:ab80f86df359f48cc2b545fd6bd4ca20e692bfac&amp;dn=The+Kettering+Incident+-+S01E07+-+Madness&amp;tr=udp%3A%2F%2Ftracker.leechers-paradise.org%3A6969&amp;tr=udp%3A%2F%2Fzer0day.ch%3A1337&amp;tr=udp%3A%2F%2Fopen.demonii.com%3A1337&amp;tr=udp%3A%2F%2Ftracker.coppersurfer.tk%3A6969&amp;tr=udp%3A%2F%2Fexodus.desync.com%3A6969",
  "seeders": 61,
  "leechers": 7,
  "uploader": "Bullrout",
  "files": 1,
  "time": 1470860420,
  "description": "The Kettering Incident - S01E07 - Madness\r\n\r\nKettering is in crisis toxic water is coming from the ridge and the mill has been sold. A fingerprint from 15 years ago links a missing local to Gillian's disappearance. Dutch finds a bloody weapon in Anna's car.\r\n\r\nComplete name : The Kettering Incident - S01E07 - Madness.mp4\r\nFormat : MPEG-4\r\nFormat profile : Base Media / Version 2\r\nCodec ID : mp42 (mp42/isom/avc1)\r\nFile size : 419 MiB\r\nDuration : 52mn 31s\r\nOverall bit rate mode : Variable\r\nOverall bit rate : 1 115 Kbps\r\n\r\nVideo\r\nID : 2\r\nFormat : AVC\r\nFormat/Info : Advanced Video Codec\r\nFormat profile :   \r\nFormat settings, CABAC : Yes\r\nFormat settings, ReFrames : 3 frames\r\nCodec ID : avc1\r\nCodec ID/Info : Advanced Video Coding\r\nDuration : 52mn 31s\r\nBit rate mode : Variable\r\nBit rate : 983 Kbps\r\nMaximum bit rate : 1 000 Kbps\r\nWidth : 720 pixels\r\nHeight : 388 pixels\r\nDisplay aspect ratio : 1.85:1\r\nFrame rate mode : Constant\r\nFrame rate : 25.000 fps\r\nStandard : PAL\r\nColor space : YUV\r\nChroma subsampling : 4:2:0\r\nBit depth : 8 bits\r\nScan type : Progressive\r\nBits/(Pixel*Frame) : 0.141\r\nStream size : 369 MiB (88%)\r\nWriting library : x264 core 112\r\nColor range : Limited\r\nColor primaries : BT.601 PAL\r\nTransfer characteristics : BT.470 System B, BT.470 System G\r\nMatrix coefficients : BT.601\r\n\r\nAudio\r\nID : 1\r\nFormat : AAC\r\nFormat/Info : Advanced Audio Codec\r\nFormat profile : LC\r\nCodec ID : 40\r\nDuration : 52mn 31s\r\nBit rate mode : Variable\r\nBit rate : 128 Kbps\r\nMaximum bit rate : 576 Kbps\r\nChannel(s) : 2 channels\r\nChannel positions : Front: L R\r\nSampling rate : 48.0 KHz\r\nFrame rate : 46.875 fps (1024 spf)\r\nCompression mode : Lossy\r\nStream size : 48.1 MiB (11%)",
  "parsed": {
    "xt": "urn:btih:ab80f86df359f48cc2b545fd6bd4ca20e692bfac",
    "dn": "The Kettering Incident - S01E07 - Madness",
    "tr": [
      "udp://exodus.desync.com:6969",
      "udp://open.demonii.com:1337",
      "udp://tracker.coppersurfer.tk:6969",
      "udp://tracker.leechers-paradise.org:6969",
      "udp://zer0day.ch:1337"
    ],
    "infoHash": "ab80f86df359f48cc2b545fd6bd4ca20e692bfac",
    "infoHashBuffer": {
      "type": "Buffer",
      "data": [
        171,
        128,
        248,
        109,
        243,
        89,
        244,
        140,
        194,
        181,
        69,
        253,
        107,
        212,
        202,
        32,
        230,
        146,
        191,
        172
      ]
    },
    "name": "The Kettering Incident - S01E07 - Madness",
    "announce": [
      "udp://exodus.desync.com:6969",
      "udp://open.demonii.com:1337",
      "udp://tracker.coppersurfer.tk:6969",
      "udp://tracker.leechers-paradise.org:6969",
      "udp://zer0day.ch:1337"
    ],
    "urlList": []
  },
  "previous": 68,
  "peers": 66,
  "last_updated": "2016-12-25T10:42:32.621Z"
}